<mxfile host="app.diagrams.net" modified="2024-03-11T15:59:55.973Z" agent="Mozilla/5.0 (Windows NT 10.0; Win64; x64) AppleWebKit/537.36 (KHTML, like Gecko) Chrome/122.0.0.0 Safari/537.36 Edg/122.0.0.0" etag="RRoiQm9UmV8Aqaf-Loca" version="24.0.4" type="google">
  <diagram name="Page-1" id="w0F9UfXS_91PseUzyhH_">
    <mxGraphModel grid="1" page="1" gridSize="10" guides="1" tooltips="1" connect="1" arrows="1" fold="1" pageScale="1" pageWidth="827" pageHeight="1169" math="0" shadow="0">
      <root>
        <mxCell id="0" />
        <mxCell id="1" parent="0" />
        <mxCell id="Ux7JYGwG3GulcwOwJ_Gv-3" value="" style="edgeStyle=orthogonalEdgeStyle;rounded=0;orthogonalLoop=1;jettySize=auto;html=1;" edge="1" parent="1" source="Ux7JYGwG3GulcwOwJ_Gv-1" target="Ux7JYGwG3GulcwOwJ_Gv-2">
          <mxGeometry relative="1" as="geometry" />
        </mxCell>
        <mxCell id="Ux7JYGwG3GulcwOwJ_Gv-1" value="Start" style="ellipse;whiteSpace=wrap;html=1;" vertex="1" parent="1">
          <mxGeometry x="340" width="120" height="80" as="geometry" />
        </mxCell>
        <mxCell id="Ux7JYGwG3GulcwOwJ_Gv-5" value="" style="edgeStyle=orthogonalEdgeStyle;rounded=0;orthogonalLoop=1;jettySize=auto;html=1;" edge="1" parent="1" target="Ux7JYGwG3GulcwOwJ_Gv-4">
          <mxGeometry relative="1" as="geometry">
            <mxPoint x="400" y="300" as="sourcePoint" />
          </mxGeometry>
        </mxCell>
        <mxCell id="Ux7JYGwG3GulcwOwJ_Gv-7" value="" style="edgeStyle=orthogonalEdgeStyle;rounded=0;orthogonalLoop=1;jettySize=auto;html=1;" edge="1" parent="1" source="Ux7JYGwG3GulcwOwJ_Gv-2" target="Ux7JYGwG3GulcwOwJ_Gv-6">
          <mxGeometry relative="1" as="geometry" />
        </mxCell>
        <mxCell id="Ux7JYGwG3GulcwOwJ_Gv-2" value="Input year&amp;nbsp;" style="shape=parallelogram;perimeter=parallelogramPerimeter;whiteSpace=wrap;html=1;fixedSize=1;" vertex="1" parent="1">
          <mxGeometry x="340" y="130" width="120" height="60" as="geometry" />
        </mxCell>
        <mxCell id="Ux7JYGwG3GulcwOwJ_Gv-9" value="No" style="edgeStyle=orthogonalEdgeStyle;rounded=0;orthogonalLoop=1;jettySize=auto;html=1;" edge="1" parent="1" source="Ux7JYGwG3GulcwOwJ_Gv-4" target="Ux7JYGwG3GulcwOwJ_Gv-8">
          <mxGeometry relative="1" as="geometry" />
        </mxCell>
        <mxCell id="Ux7JYGwG3GulcwOwJ_Gv-11" value="Yes" style="edgeStyle=orthogonalEdgeStyle;rounded=0;orthogonalLoop=1;jettySize=auto;html=1;" edge="1" parent="1" source="Ux7JYGwG3GulcwOwJ_Gv-4" target="Ux7JYGwG3GulcwOwJ_Gv-10">
          <mxGeometry relative="1" as="geometry" />
        </mxCell>
        <mxCell id="Ux7JYGwG3GulcwOwJ_Gv-4" value="&lt;font style=&quot;font-size: 18px;&quot;&gt;&lt;br&gt;(mod4==0&amp;amp;&amp;amp;mod100&amp;lt;&amp;gt;0)|&lt;br&gt; |(mod400==0)? &lt;br&gt;&lt;/font&gt;" style="rhombus;whiteSpace=wrap;html=1;direction=west;" vertex="1" parent="1">
          <mxGeometry x="230" y="400" width="340" height="170" as="geometry" />
        </mxCell>
        <mxCell id="Ux7JYGwG3GulcwOwJ_Gv-6" value="&lt;div&gt;&lt;font style=&quot;font-size: 14px;&quot;&gt;mod4 &amp;lt;-- year%4&amp;nbsp;&lt;/font&gt;&lt;/div&gt;&lt;div&gt;&lt;font size=&quot;3&quot;&gt;mod100 &amp;lt;-- year%100&amp;nbsp;&lt;/font&gt;&lt;/div&gt;&lt;div&gt;&lt;font size=&quot;3&quot;&gt;mod400 &amp;lt;-- year%400&lt;/font&gt;&lt;/div&gt;" style="whiteSpace=wrap;html=1;" vertex="1" parent="1">
          <mxGeometry x="295" y="250" width="210" height="110" as="geometry" />
        </mxCell>
        <mxCell id="Ux7JYGwG3GulcwOwJ_Gv-16" value="" style="edgeStyle=orthogonalEdgeStyle;rounded=0;orthogonalLoop=1;jettySize=auto;html=1;" edge="1" parent="1" source="Ux7JYGwG3GulcwOwJ_Gv-8">
          <mxGeometry relative="1" as="geometry">
            <mxPoint x="590" y="730" as="sourcePoint" />
            <mxPoint x="400" y="845" as="targetPoint" />
            <Array as="points">
              <mxPoint x="400" y="725" />
            </Array>
          </mxGeometry>
        </mxCell>
        <mxCell id="Ux7JYGwG3GulcwOwJ_Gv-8" value="Display Không Nhuận" style="shape=parallelogram;perimeter=parallelogramPerimeter;whiteSpace=wrap;html=1;fixedSize=1;" vertex="1" parent="1">
          <mxGeometry x="580" y="685" width="210" height="80" as="geometry" />
        </mxCell>
        <mxCell id="Ux7JYGwG3GulcwOwJ_Gv-13" value="" style="edgeStyle=orthogonalEdgeStyle;rounded=0;orthogonalLoop=1;jettySize=auto;html=1;" edge="1" parent="1" source="Ux7JYGwG3GulcwOwJ_Gv-10">
          <mxGeometry relative="1" as="geometry">
            <mxPoint x="400" y="840" as="targetPoint" />
          </mxGeometry>
        </mxCell>
        <mxCell id="Ux7JYGwG3GulcwOwJ_Gv-10" value="Display Nhuận" style="shape=parallelogram;perimeter=parallelogramPerimeter;whiteSpace=wrap;html=1;fixedSize=1;" vertex="1" parent="1">
          <mxGeometry x="20" y="680" width="200" height="90" as="geometry" />
        </mxCell>
        <mxCell id="Ux7JYGwG3GulcwOwJ_Gv-14" value="End" style="ellipse;whiteSpace=wrap;html=1;" vertex="1" parent="1">
          <mxGeometry x="340" y="840" width="120" height="80" as="geometry" />
        </mxCell>
        <mxCell id="Ux7JYGwG3GulcwOwJ_Gv-17" value="&lt;font style=&quot;font-size: 14px;&quot;&gt;Prototype : kiemtranhuan(year)&lt;/font&gt;" style="text;html=1;align=center;verticalAlign=middle;whiteSpace=wrap;rounded=0;fontStyle=1" vertex="1" parent="1">
          <mxGeometry width="220" height="90" as="geometry" />
        </mxCell>
      </root>
    </mxGraphModel>
  </diagram>
</mxfile>
